<?xml version="1.0" encoding="UTF-8"?>
<svg id="Layer_1" data-name="Layer 1" xmlns="http://www.w3.org/2000/svg" viewBox="0 0 566.93 5669.29">
  <defs>
    <style>
      .cls-1 {
        fill: #69f;
      }
    </style>
  </defs>
  <path class="cls-1" d="m0,0c34.17,13.61,43.02,26.68,43.92,36.75.95,10.59-2.96,18.64-16.53,49.58-14.2,32.39,8.16,43.48,8.6,97.36.4,48.56-15.54,48.19-10.42,86.26,5.09,37.8,21.66,44.48,20.83,78.11-.73,29.57-13.7,31.3-19.25,62.04-9.41,52.21,24.93,64.47,23.32,123.85-1.27,46.83-22.96,51.37-16.53,93.28,5.21,33.96,20.44,37.34,19.02,67.25-1.45,30.5-17.88,39.45-14.94,70.87,1.88,20.15,8.87,18.98,11.77,40.75,4.32,32.45-10.53,40.27-10.64,74.26-.11,33.55,14.31,35.11,13.58,66.11-.75,32.24-16.51,37.16-23.55,68.83-9.01,40.54,13.22,48.6,20.83,115.92,5.83,51.54-1.83,94.28-4.53,107.77-8.76,43.85-18.15,44.6-19.02,73.36-1.32,43.81,19.93,60.17,28.98,102.34,11.53,53.7-18.99,58.98-14.49,118.64,4.26,56.45,28.8,59.81,28.08,111.4-.65,46.77-20.91,50.3-19.92,96,1.09,50.43,25.92,53.61,27.17,99.62,1.58,58.29-37.85,68.37-33.51,120.45,4.16,49.95,41.35,51.85,46.19,101.43,5.62,57.59-42.8,72.77-36.23,126.79,6.63,54.49,59.82,71.22,50.72,106.87-7.76,30.41-47.75,23.3-63.4,56.15-22.73,47.72,48.69,89.91,36.23,164.83-7.05,42.4-32.1,41.92-39.85,93.28-6.13,40.6,8.93,44.76,10.87,102.57,2.33,69.6-18.95,80.21-7.47,129.74,10,43.17,27.63,41.41,29.89,75.4,3.56,53.67-39.69,68.8-33.28,113.43,6.19,43.11,48.73,44.22,53.66,85.58,5.39,45.15-43.77,56.71-46.87,110.04-3.14,53.92,45.66,66.96,41.43,122.26-3.3,43.15-33.76,45.1-40.75,94.42-6.3,44.41,16.6,55.58,23.09,112.08,7.68,66.81-22.13,70.37-20.38,139.92,2.1,82.95,45.01,97.88,32.6,160.3-10.74,54.06-45.7,56.8-44.83,101.21,1.07,54.76,54.55,67.63,52.3,118.87-1.9,43.39-40.76,45.63-48.91,94.42-9.21,55.17,37.44,70.46,38.72,138.57,1.12,59.7-34.44,63.86-33.96,123.62.54,67.57,46.1,75.32,47.55,141.28,1.47,66.66-44.65,77.32-39.4,139.25,5.36,63.13,54.76,69.4,56.38,127.7,1.72,61.88-53.47,71.78-55.02,135.85-1.62,66.76,57.71,80.85,53.66,146.72-3.42,55.56-46.56,60.37-50.26,118.87-3.81,60.16,40.83,70.67,38.04,129.06-3.19,66.8-62.77,77.1-61.81,139.25.89,57.84,53.05,84.2,39.4,119.55-9.34,24.19-42.47,34.39-71.09,39.18"/>
  <path class="cls-1" d="m566.93,0c-10.36,6.07-25.1,16.96-30.55,34.49-8.72,28.04,14.97,45.22,10.19,80.15-3.94,28.72-21.23,26.39-27.17,55.7-7.46,36.78,18.6,46.35,19.02,93.74.35,39.39-17.57,42.43-12.91,78.11,4.37,33.5,20.94,36.77,21.06,66.57.13,32.03-18.98,35.4-18.34,65.89.7,33.22,23.56,37.66,23.09,69.96-.42,29.56-19.66,32.25-19.02,60.45.75,33.21,27.68,40.97,23.77,67.92-3.46,23.83-25.35,23.64-30.57,48.91-5.61,27.15,18.08,35.19,19.7,71.32,1.51,33.59-18.47,37.7-17.66,72,.82,35.01,21.79,37.41,25.13,72,4.11,42.49-26.5,49.46-26.49,95.09,0,43.94,28.38,49.6,24.45,91.02-3.45,36.34-26.04,39.88-25.13,74.04.87,32.75,21.84,37.59,21.06,69.96-.74,30.52-19.54,32.93-21.06,63.85-1.76,35.74,22.94,41.01,21.74,75.4-1.24,35.4-27.82,40.92-26.49,75.4,1.09,28.26,19.14,29.56,21.06,57.74,2.59,38.15-29.74,46.71-28.53,84.23,1.13,35,29.62,38.46,28.53,72.68-1.05,32.83-27.7,42.8-22.42,71.32,3.97,21.39,19.84,20.54,24.45,42.11,6.45,30.2-22.49,42.06-21.74,76.75.7,31.89,25.4,33.5,29.21,67.25,4.31,38.2-26.24,46.01-27.17,87.62-.99,44.36,33.39,50.79,32.6,95.09-.69,38.93-27.37,42.16-31.92,88.3-3.88,39.34,15.01,42.13,14.26,86.26-.87,51.55-26.85,59.71-21.74,103.92,4.07,35.16,20.87,33.23,23.77,67.92,3.75,44.75-23.61,55.05-17.66,97.13,4.62,32.64,22.17,34.19,21.74,64.53-.44,30.72-18.54,36.06-16.3,63.85,2.37,29.43,23.37,32.17,23.77,59.09.42,28.19-22.51,32.39-23.09,61.81-.57,28.92,21.4,33.83,19.7,61.13-1.77,28.28-25.86,31.26-27.85,59.09-1.92,26.8,19.8,32.52,25.13,65.21,5.04,30.9-12.37,38.08-17.66,76.75-6.78,49.53,19.12,57.15,19.02,112.08-.1,51.52-22.9,52.14-24.45,104.6-1.62,55.01,23.29,59.74,24.45,115.47,1.29,61.88-29.22,65.55-28.53,125.66.76,65.34,36.96,73.24,28.53,127.7-7.12,46.02-35.07,53.97-32.6,97.13,2.11,37.06,23.31,41.49,21.74,74.72-2,42.24-36.85,48.11-37.36,86.26-.5,38.14,34.16,44.74,36,86.26,1.65,37.27-25.89,40.45-31.92,82.87-8.02,56.38,37.57,72.36,29.89,128.38-5.93,43.25-35.26,49.42-32.6,88.98,2.22,33.06,23.09,34.54,30.57,70.64,10.17,49.09-24.89,63.33-21.74,117.51,2.97,51.06,34.91,52.17,38.72,103.92,3.76,51.1-26.9,56.65-27.85,115.47-.89,55.34,26.04,63.37,19.7,114.11-5.59,44.7-27.39,45.66-29.89,85.58-3.29,52.61,33.95,60.72,35.32,113.43,1.51,58.21-43.34,69.74-38.72,126.34,3.8,46.49,34.79,47.6,38.72,93.06,5.19,60.07-47.57,73.77-44.83,134.49,2.5,55.39,47.65,71.35,36,114.11-8.99,32.99-39.29,36.12-40.08,67.92-.7,28.25,22.55,52.63,32.6,63.17,13.66,14.32,27.84,22.83,37.34,27.63"/>
</svg>