<?xml version="1.0" encoding="UTF-8"?>
<svg id="Layer_1" data-name="Layer 1" xmlns="http://www.w3.org/2000/svg" viewBox="0 0 643.8 556.38">
  <defs>
    <style>
      .cls-1 {
        fill: #69f;
      }
    </style>
  </defs>
  <path class="cls-1" d="m624.3,25.06c-20.39,5.19-48.32,15.58-55.85,37.74-8.36,24.6,16.54,39.88,16,73.66-.78,48.88-53.6,60.04-51.02,96.6,2.74,38.92,63.32,36.64,94.19,97.81,15.48,30.67,25.3,80.87,3.62,116.53-18.24,30.01-48.87,33.4-49.21,54.64-.31,19.69,22.93,37.26,44.68,49.51"/>
  <path class="cls-1" d="m24.45,0c8.59,1.65,40.26,8.81,60.38,37.74,23.53,33.81,19.62,80.63-.91,106.87-17.4,22.25-35.36,15.14-49.51,39.25-13.25,22.57-13.54,56.12,2.11,71.25,8.98,8.68,15.61,3.94,28.68,13.89,13.72,10.44,23.16,28.41,24.15,45.58,1.74,30.27-23.96,37.45-20.23,60.68,4.13,25.66,37.49,29.36,37.74,51.62.05,4.22-1.08,10.6-28.98,38.34-34.48,34.28-49.81,41.5-52.83,60.08-1.22,7.49-.6,17.82,6.64,31.09-10.57-1.71-21.13-3.42-31.7-5.13"/>
</svg>